# xmcd
#
# Track frame offsets: 
#        150
#        14935
#        30413
#        50252
#        65977
#        84286
#        102078
#        119711
#        136235
#        154164
#        170485
#        190207
#        207768
#        228706
#        244010
#        260513
#        276152
#        292841
#        309640
#        325214
#        341979
#
# Disc length: 4751 seconds
#
# Revision: 0
# Processed by: cddbd v1.5.2PL0 Copyright (c) Steve Scherf et al.
# Submitted via: ExactAudioCopy v0.99pb5
#
DISCID=3c128d15
DTITLE=Стас Михайлов - Живи и знай
DYEAR=2010
DGENRE=Chanson
TTITLE0=Живи и знай
TTITLE1=Солдат
TTITLE2=Петербург - Москва
TTITLE3=Разрушительница
TTITLE4=Королева вдохновения(дуэт с К.Бужинской)
TTITLE5=Все для тебя
TTITLE6=Берега мечты
TTITLE7=Родная
TTITLE8=Нежданная любовь
TTITLE9=Отпусти(дуэт с Т.Повалий)
TTITLE10=Без тебя
TTITLE11=Летит по небу
TTITLE12=Свеча
TTITLE13=На крыльях любви
TTITLE14=Летим (дуэт с Зарой)
TTITLE15=Два сердца
TTITLE16=Знай об этом
TTITLE17=Ты...
TTITLE18=Мир без тебя
TTITLE19=За женщин всех
TTITLE20=Белая береза
EXTD=
EXTT0=
EXTT1=
EXTT2=
EXTT3=
EXTT4=
EXTT5=
EXTT6=
EXTT7=
EXTT8=
EXTT9=
EXTT10=
EXTT11=
EXTT12=
EXTT13=
EXTT14=
EXTT15=
EXTT16=
EXTT17=
EXTT18=
EXTT19=
EXTT20=
PLAYORDER=
